<svg width="169" height="27" viewBox="0 0 169 27" xmlns="http://www.w3.org/2000/svg">
<path d="M9.24072 16.2178L5.44685 20.2114L5.44685 26.487H1L1 1.95044L5.44417 1.95044L5.44417 14.5366L17.2678 1.95044L22.2593 1.95044L12.2132 12.9224L22.8769 26.487H17.6816L9.24072 16.2178Z"/>
<path d="M25.1659 7.76831L29.4394 7.76831L29.4394 26.4872H25.1659L25.1659 7.76831Z"/>
<path d="M51.1039 26.4871L46.2173 19.3015C46.0117 19.3245 45.7058 19.3355 45.2942 19.3355H39.8957V26.4871H35.451L35.451 1.95054L45.2938 1.95054C47.152 1.90719 48.9983 2.26495 50.7129 3.00061C52.1584 3.6225 53.3902 4.67226 54.2511 6.01577C55.0942 7.4139 55.5214 9.03386 55.4805 10.6772C55.524 12.3662 55.0652 14.0288 54.1651 15.4439C53.2391 16.8164 51.9186 17.8584 50.3878 18.4246L55.8921 26.4862L51.1039 26.4871ZM49.4992 7.06814C48.4951 6.22661 47.0257 5.80585 45.0909 5.80585L39.8957 5.80585V15.5868L45.0909 15.5868C47.0266 15.5868 48.496 15.1608 49.4992 14.3088C50.0045 13.8629 50.4028 13.3036 50.6633 12.6742C50.9238 12.0449 51.0395 11.3625 51.0014 10.68C51.0407 9.99978 50.9255 9.31949 50.6648 8.69271C50.4042 8.06594 50.0051 7.50981 49.4992 7.06814V7.06814Z"/>
<path d="M75.9526 20.8076L63.9901 20.8076L61.6317 26.487H57.0536L67.8171 1.95044L72.1919 1.95044L82.9917 26.487H78.3464L75.9526 20.8076ZM74.4809 17.2334L69.9714 6.50763L65.4963 17.2334L74.4809 17.2334Z"/>
<path d="M27.2896 0.246826L28.1778 2.09295L30.1645 2.38877L28.7268 3.82607L29.0663 5.85501L27.2896 4.89681L25.513 5.85501L25.8524 3.82607L24.4148 2.38877L26.4015 2.09295L27.2896 0.246826Z"/>
<path d="M94.6814 16.2178L90.888 20.2114V26.487H86.4434V1.95044L90.8866 1.95044V14.5366L102.71 1.95044L107.7 1.95044L97.6548 12.9224L108.318 26.4865H103.123L94.6814 16.2178Z"/>
<path d="M110.607 7.76831L114.879 7.76831V26.4872H110.607V7.76831Z"/>
<path d="M136.545 26.487L131.659 19.3014C131.453 19.3244 131.147 19.3354 130.735 19.3354H125.337V26.487H120.893V1.95049L130.737 1.95049C132.594 1.90748 134.439 2.26524 136.153 3.00056C137.599 3.62244 138.83 4.67221 139.691 6.01572C140.534 7.41399 140.961 9.03387 140.92 10.6772C140.964 12.3662 140.505 14.0287 139.605 15.4438C138.679 16.8164 137.359 17.8584 135.828 18.4245L141.332 26.4861L136.545 26.487ZM134.941 7.06808C133.937 6.22656 132.467 5.8058 130.532 5.8058L125.337 5.8058V15.5867L130.532 15.5867C132.468 15.5867 133.938 15.1607 134.941 14.3088C135.446 13.8626 135.844 13.3032 136.104 12.674C136.365 12.0447 136.48 11.3624 136.442 10.6799C136.482 9.99977 136.367 9.31954 136.106 8.69279C135.845 8.06604 135.446 7.50987 134.941 7.06808V7.06808Z"/>
<path d="M161.394 20.8076L149.431 20.8076L147.073 26.487H142.495L153.258 1.95044L157.633 1.95044L168.433 26.487H163.786L161.394 20.8076ZM159.922 17.2334L155.411 6.50763L150.936 17.2334L159.922 17.2334Z"/>
<path d="M115.093 3.59158L112.753 1.19189L110.414 3.59158L112.753 5.99126L115.093 3.59158Z"/>
</svg>
