<svg width="72" height="72" viewBox="0 0 72 72" fill="none" xmlns="http://www.w3.org/2000/svg">
<g filter="url(#filter0_d_7334_158)">
<path d="M15.8535 32.5258C15.6927 31.6509 16.6686 31.0171 17.4023 31.5199L24.0059 36.0443C24.3151 36.2561 24.7172 36.2773 25.0469 36.099L32.0879 32.2894C32.8702 31.8664 33.7738 32.5984 33.5225 33.4515L31.2607 41.1302C31.1548 41.4899 31.2587 41.8786 31.5303 42.1371L37.3291 47.6556C37.9731 48.2689 37.556 49.3546 36.667 49.3793L28.665 49.601C28.2904 49.6113 27.953 49.8304 27.791 50.1683L24.334 57.389C23.9498 58.1913 22.7874 58.1304 22.4893 57.2924L19.8066 49.7504C19.681 49.3971 19.3678 49.1436 18.9961 49.0941L11.0615 48.0375C10.18 47.9201 9.87862 46.7969 10.583 46.2543L16.9268 41.3715C17.2238 41.1428 17.3684 40.7675 17.3008 40.3988L15.8535 32.5258ZM51.3652 34.7474C52.0599 34.2963 52.9892 34.4933 53.4404 35.1879C53.8916 35.8826 53.6938 36.8119 52.999 37.2631L41.2578 44.8881C40.563 45.3392 39.6338 45.1414 39.1826 44.4467C38.7319 43.752 38.9296 42.8236 39.624 42.3724L51.3652 34.7474ZM56.752 16.3011C57.4466 15.85 58.3759 16.047 58.8271 16.7416C59.2783 17.4364 59.0805 18.3656 58.3857 18.8168L38.2578 31.8881C37.5631 32.3392 36.6338 32.1423 36.1826 31.4476C35.7315 30.7529 35.9294 29.8237 36.624 29.3724L56.752 16.3011Z" fill="white"/>
</g>
<defs>
<filter id="filter0_d_7334_158" x="-4" y="-2" width="80" height="80" filterUnits="userSpaceOnUse" color-interpolation-filters="sRGB">
<feFlood flood-opacity="0" result="BackgroundImageFix"/>
<feColorMatrix in="SourceAlpha" type="matrix" values="0 0 0 0 0 0 0 0 0 0 0 0 0 0 0 0 0 0 127 0" result="hardAlpha"/>
<feOffset dy="2"/>
<feGaussianBlur stdDeviation="2"/>
<feComposite in2="hardAlpha" operator="out"/>
<feColorMatrix type="matrix" values="0 0 0 0 0.941176 0 0 0 0 0.431373 0 0 0 0 0.556863 0 0 0 0.5 0"/>
<feBlend mode="normal" in2="BackgroundImageFix" result="effect1_dropShadow_7334_158"/>
<feBlend mode="normal" in="SourceGraphic" in2="effect1_dropShadow_7334_158" result="shape"/>
</filter>
</defs>
</svg>
