<svg width="229" height="42" viewBox="0 0 229 42" xmlns="http://www.w3.org/2000/svg">
<path d="M8.24072 31.2178L4.44685 35.2114L4.44685 41.487H0L0 16.9504H4.44417L4.44417 29.5366L16.2678 16.9504H21.2593L11.2132 27.9224L21.8769 41.487H16.6816L8.24072 31.2178Z"/>
<path d="M24.1659 22.7683H28.4394L28.4394 41.4872H24.1659L24.1659 22.7683Z"/>
<path d="M50.1039 41.4871L45.2173 34.3015C45.0117 34.3245 44.7058 34.3355 44.2942 34.3355H38.8957V41.4871H34.451L34.451 16.9505L44.2938 16.9505C46.152 16.9072 47.9983 17.2649 49.7129 18.0006C51.1584 18.6225 52.3902 19.6723 53.2511 21.0158C54.0942 22.4139 54.5214 24.0339 54.4805 25.6772C54.524 27.3662 54.0652 29.0288 53.1651 30.4439C52.2391 31.8164 50.9186 32.8584 49.3878 33.4246L54.8921 41.4862L50.1039 41.4871ZM48.4992 22.0681C47.4951 21.2266 46.0257 20.8058 44.0909 20.8058H38.8957V30.5868H44.0909C46.0266 30.5868 47.496 30.1608 48.4992 29.3088C49.0045 28.8629 49.4028 28.3036 49.6633 27.6742C49.9238 27.0449 50.0395 26.3625 50.0014 25.68C50.0407 24.9998 49.9255 24.3195 49.6648 23.6927C49.4042 23.0659 49.0051 22.5098 48.4992 22.0681V22.0681Z"/>
<path d="M74.9526 35.8076H62.9901L60.6317 41.487H56.0536L66.8171 16.9504L71.1919 16.9504L81.9917 41.487H77.3464L74.9526 35.8076ZM73.4809 32.2334L68.9714 21.5076L64.4963 32.2334H73.4809Z"/>
<path d="M26.2896 15.2468L27.1778 17.0929L29.1645 17.3888L27.7268 18.8261L28.0663 20.855L26.2896 19.8968L24.513 20.855L24.8524 18.8261L23.4148 17.3888L25.4015 17.0929L26.2896 15.2468Z"/>
<path d="M93.6814 31.2178L89.888 35.2114V41.487H85.4434V16.9504H89.8866V29.5366L101.71 16.9504H106.7L96.6548 27.9224L107.318 41.4865H102.123L93.6814 31.2178Z"/>
<path d="M109.607 22.7683H113.879V41.4872H109.607V22.7683Z"/>
<path d="M135.545 41.487L130.659 34.3014C130.453 34.3244 130.147 34.3354 129.735 34.3354H124.337V41.487H119.893V16.9505H129.737C131.594 16.9075 133.439 17.2652 135.153 18.0006C136.599 18.6224 137.83 19.6722 138.691 21.0157C139.534 22.414 139.961 24.0339 139.92 25.6772C139.964 27.3662 139.505 29.0287 138.605 30.4438C137.679 31.8164 136.359 32.8584 134.828 33.4245L140.332 41.4861L135.545 41.487ZM133.941 22.0681C132.937 21.2266 131.467 20.8058 129.532 20.8058H124.337V30.5867H129.532C131.468 30.5867 132.938 30.1607 133.941 29.3088C134.446 28.8626 134.844 28.3032 135.104 27.674C135.365 27.0447 135.48 26.3624 135.442 25.6799C135.482 24.9998 135.367 24.3195 135.106 23.6928C134.845 23.066 134.446 22.5099 133.941 22.0681V22.0681Z"/>
<path d="M160.394 35.8076H148.431L146.073 41.487H141.495L152.258 16.9504L156.633 16.9504L167.433 41.487H162.786L160.394 35.8076ZM158.922 32.2334L154.411 21.5076L149.936 32.2334H158.922Z"/>
<path d="M114.093 18.5916L111.753 16.1919L109.414 18.5916L111.753 20.9913L114.093 18.5916Z"/>
<path d="M184.93 16.5255C184.77 15.6507 185.745 15.0169 186.479 15.5196L193.083 20.0441C193.392 20.2559 193.794 20.2771 194.124 20.0987L201.164 16.2892C201.946 15.8659 202.851 16.598 202.599 17.4513L200.337 25.13C200.231 25.4897 200.336 25.8784 200.607 26.1368L206.405 31.6554C206.46 31.7074 206.505 31.7645 206.545 31.8224C206.562 31.8477 206.58 31.8723 206.595 31.8986C206.602 31.9122 206.608 31.9267 206.615 31.9405C206.629 31.969 206.643 31.9973 206.654 32.0265C206.662 32.0466 206.666 32.0676 206.673 32.088C206.68 32.1128 206.689 32.1371 206.694 32.1622C206.698 32.1813 206.701 32.2006 206.704 32.2198C206.708 32.2482 206.712 32.2764 206.714 32.3048C206.715 32.3214 206.715 32.338 206.716 32.3546C206.716 32.3837 206.716 32.4126 206.714 32.4415C206.712 32.4622 206.71 32.4826 206.707 32.503C206.704 32.5253 206.7 32.5474 206.696 32.5695C206.692 32.5891 206.688 32.6087 206.683 32.628C206.676 32.6562 206.667 32.6836 206.657 32.7111C206.651 32.7282 206.644 32.745 206.637 32.7618C206.628 32.7844 206.618 32.8064 206.607 32.8282C206.597 32.8494 206.586 32.8703 206.574 32.8907C206.563 32.9094 206.551 32.9274 206.539 32.9454C206.526 32.9642 206.514 32.9832 206.5 33.0011C206.489 33.0146 206.478 33.0272 206.467 33.0402C206.447 33.0623 206.428 33.0842 206.407 33.1046C206.388 33.1232 206.366 33.1393 206.346 33.1564C206.331 33.1679 206.318 33.1807 206.304 33.1915C206.278 33.2101 206.251 33.2262 206.223 33.2423C206.21 33.2503 206.197 33.2593 206.182 33.2667C206.153 33.2819 206.123 33.2934 206.092 33.3058C206.077 33.3116 206.063 33.3191 206.048 33.3243C206.03 33.3304 206.011 33.3339 205.993 33.339C205.915 33.3608 205.832 33.3775 205.744 33.38L197.742 33.6007C197.367 33.6111 197.029 33.8308 196.867 34.1691L193.411 41.3888L193.33 41.5294C193.302 41.5704 193.27 41.6076 193.238 41.6427C193.228 41.6541 193.216 41.6641 193.205 41.6749C193.183 41.6963 193.162 41.7175 193.138 41.7364C193.119 41.7519 193.099 41.7646 193.079 41.7784C193.063 41.7897 193.047 41.8014 193.03 41.8116C193.009 41.8246 192.987 41.8365 192.965 41.8478C192.946 41.8574 192.926 41.8658 192.907 41.8741C192.887 41.8828 192.866 41.8913 192.846 41.8986C192.823 41.9064 192.8 41.9128 192.777 41.9191C192.757 41.9246 192.736 41.9304 192.716 41.9347C192.693 41.9394 192.669 41.9423 192.646 41.9454C192.626 41.9481 192.606 41.9518 192.586 41.9532C192.499 41.9596 192.412 41.9551 192.326 41.9396C192.308 41.9363 192.291 41.931 192.273 41.9269C192.248 41.9208 192.222 41.9144 192.197 41.9064C192.178 41.9001 192.159 41.8933 192.139 41.8859C192.118 41.8777 192.097 41.8691 192.077 41.8595C192.055 41.8492 192.034 41.8382 192.012 41.8263C191.994 41.816 191.977 41.8046 191.959 41.7931C191.941 41.7816 191.924 41.7696 191.907 41.757C191.885 41.7404 191.863 41.7229 191.843 41.7042C191.829 41.6924 191.816 41.6807 191.804 41.6681C191.781 41.6461 191.761 41.6223 191.741 41.5978C191.731 41.5855 191.719 41.5745 191.71 41.5616C191.682 41.5239 191.656 41.4836 191.633 41.4405C191.608 41.3941 191.585 41.3447 191.566 41.2921L188.884 33.7501C188.758 33.3968 188.445 33.1434 188.073 33.0939L180.138 32.0382C179.257 31.9208 178.955 30.7966 179.66 30.254L186.004 25.3712C186.301 25.1425 186.445 24.7673 186.378 24.3986L184.93 16.5255Z"/>
<path d="M221.442 19.7475C222.137 19.2963 223.066 19.4932 223.518 20.1879C223.969 20.8826 223.771 21.8119 223.076 22.2631L211.335 29.8881C210.64 30.3392 209.711 30.1422 209.26 29.4476C208.809 28.7529 209.006 27.8236 209.701 27.3725L221.442 19.7475Z"/>
<path d="M225.829 0.301165C226.524 -0.150002 227.453 0.0468835 227.904 0.741594C228.356 1.43634 228.158 2.36557 227.463 2.81679L207.335 15.8881C206.64 16.3392 205.711 16.1422 205.26 15.4476C204.809 14.7529 205.006 13.8236 205.701 13.3725L225.829 0.301165Z"/>
</svg>
