<svg width="256" height="256" viewBox="0 0 256 256" xmlns="http://www.w3.org/2000/svg">
<path d="M34.2984 104.742C33.5056 100.423 38.3248 97.2958 41.9473 99.7777L74.5525 122.115C76.0797 123.161 78.0624 123.266 79.6904 122.385L114.452 103.577C118.314 101.488 122.779 105.104 121.538 109.317L110.367 147.226C109.844 149.001 110.358 150.921 111.698 152.198L140.33 179.445C143.51 182.472 141.452 187.835 137.063 187.958L97.5532 189.05C95.7026 189.101 94.0365 190.184 93.237 191.854L76.1687 227.502C74.2717 231.462 68.5377 231.161 67.0656 227.024L53.816 189.786C53.1952 188.043 51.6508 186.791 49.8161 186.546L10.642 181.331C6.28871 180.752 4.80111 175.204 8.28136 172.525L39.6021 148.421C41.0691 147.292 41.7803 145.436 41.4459 143.615L34.2984 104.742Z"/>
<path d="M214.566 120.649C217.996 118.422 222.583 119.4 224.811 122.829C227.038 126.259 226.066 130.846 222.636 133.073L164.665 170.72C161.235 172.947 156.648 171.97 154.42 168.541C152.195 165.111 153.167 160.523 156.596 158.296L214.566 120.649Z"/>
<path d="M236.225 24.6388C239.654 22.4117 244.241 23.3863 246.47 26.8142C248.697 30.2441 247.723 34.8311 244.294 37.0591L144.916 101.598C141.486 103.825 136.899 102.849 134.671 99.419C132.446 95.9894 133.418 91.4018 136.847 89.1742L236.225 24.6388Z"/>
</svg>
